#!OML:ASF E:\inclinewalkrobotboard\Project 1\Capture day 1\Session 1\subject1.ASF
:FULLY-SPECIFIED
:DEGREES
180
root 7.35938 18.2065 24.4697 -169.349 0.382547 175.574
lowerback 5.00933 -0.513976 -10.3768
upperback 4.11044 -1.33962 1.38238
thorax 1.75952 -1.05996 7.33468
lowerneck -3.09326 -1.17102 -2.88675
upperneck 22.9753 -0.589365 5.32661
head 7.5709 0.603549 2.29026
rclavicle 8.05078e-015 2.16675e-014
rhumerus -78.3698 -45.158 -21.2171
rradius 14.711
rwrist 44.2769
rhand -12.6671 -40.2016
rfingers 7.12502
rthumb 13.4141 -69.7497
lclavicle 8.05078e-015 2.16675e-014
lhumerus -22.0493 -8.45227 90.276
lradius 41.6773
lwrist -16.6923
lhand -28.0342 -24.1234
lfingers 7.12502
lthumb -1.41897 5.85161
rfemur -58.3753 0.0990061 12.4838
rtibia 36.8201
rfoot -7.46966 -6.00928
rtoes -31.456
lfemur -4.45638 -11.5725 -27.886
ltibia 16.0054
lfoot -31.383 -1.36218
ltoes -59.5636
181
root 7.39342 18.1853 24.224 -169.492 -0.224472 175.563
lowerback 5.11043 -0.670879 -10.1761
upperback 4.31394 -1.56668 1.53797
thorax 1.96083 -1.19965 7.39097
lowerneck -3.34199 -1.12681 -2.63303
upperneck 22.9807 -0.481321 4.84477
head 7.61255 0.625745 2.09518
rclavicle 3.77691e-015 1.47101e-014
rhumerus -82.0198 -45.752 -16.1517
rradius 14.1127
rwrist 47.6327
rhand -12.3252 -40.0219
rfingers 7.12502
rthumb 13.7436 -69.548
lclavicle 3.77691e-015 1.47101e-014
lhumerus -21.8877 -8.71399 90.5745
lradius 41.947
lwrist -16.6957
lhand -29.6613 -25.1305
lfingers 7.12502
lthumb -2.99036 4.82833
rfemur -58.1355 -0.241879 12.4627
rtibia 37.2264
rfoot -4.4963 -6.84937
rtoes -28.9828
lfemur -3.3097 -11.7716 -27.9214
ltibia 16.1042
lfoot -31.2998 -1.65737
ltoes -59.8307
182
root 7.43288 18.1681 23.9738 -169.569 -0.957867 175.567
lowerback 5.2026 -0.80622 -9.92802
upperback 4.48729 -1.76135 1.68235
thorax 2.12612 -1.31699 7.40732
lowerneck -3.67323 -1.12901 -2.11788
upperneck 23.0277 -0.457295 4.33593
head 7.68583 0.63031 1.84196
rclavicle -2.0276e-014 1.70955e-014
rhumerus -85.3103 -46.0359 -11.8642
rradius 13.6898
rwrist 50.405
rhand -12.0818 -40.0001
rfingers 7.12502
rthumb 13.9781 -69.5102
lclavicle -2.0276e-014 1.70955e-014
lhumerus -21.7188 -9.01803 90.8748
lradius 41.9797
lwrist -16.8377
lhand -27.8749 -24.357
lfingers 7.12502
lthumb -1.2651 5.61902
rfemur -57.7432 -0.602796 12.5431
rtibia 38.172
rfoot -1.34737 -7.70072
rtoes -27.1518
lfemur -2.25059 -11.917 -27.8412
ltibia 16.2742
lfoot -30.9938 -2.08502
ltoes -60.0581
183
root 7.47321 18.1594 23.716 -169.517 -1.73843 175.436
lowerback 5.24826 -0.951052 -9.70207
upperback 4.54885 -1.95601 1.76675
thorax 2.19773 -1.41855 7.37251
lowerneck -3.78641 -1.1548 -1.80322
upperneck 23.0191 -0.481631 4.07811
head 7.70334 0.62056 1.70114
rclavicle 3.18055e-015 -1.07344e-014
rhumerus -88.7038 -46.0729 -7.50822
rradius 13.3016
rwrist 53.098
rhand -12.0872 -39.9715
rfingers 7.12502
rthumb 13.9729 -69.4819
lclavicle 3.18055e-015 -1.07344e-014
lhumerus -21.7827 -9.2104 91.1763
lradius 41.7565
lwrist -17.2944
lhand -30.4428 -26.5824
lfingers 7.12502
lthumb -3.74508 3.36445
rfemur -57.3012 -1.08736 12.6179
rtibia 39.7061
rfoot -2.94959 -7.35141
rtoes -26.3841
lfemur -1.37231 -12.1377 -27.8828
ltibia 16.5284
lfoot -30.4309 -2.4526
ltoes -60.3309
184
root 7.51687 18.1617 23.4495 -169.247 -2.4371 175.257
lowerback 5.11727 -1.11148 -9.53858
upperback 4.5218 -2.14623 1.88468
thorax 2.27845 -1.51133 7.40484
lowerneck -3.48932 -1.20508 -2.05262
upperneck 22.6844 -0.555283 4.14083
head 7.54199 0.556797 1.75109
rclavicle -8.34896e-015 7.55382e-015
rhumerus -91.8877 -45.9597 -3.15923
rradius 12.941
rwrist 55.7681
rhand -11.7846 -39.999
rfingers 7.12502
rthumb 14.2645 -69.4891
lclavicle -8.34896e-015 7.55382e-015
lhumerus -22.031 -9.03081 91.5442
lradius 41.3225
lwrist -17.9309
lhand -31.5149 -27.5141
lfingers 7.12502
lthumb -4.7803 2.41196
rfemur -56.9428 -1.38267 12.636
rtibia 41.3653
rfoot -6.91435 -6.49816
rtoes -26.333
lfemur -0.77353 -12.3048 -27.8814
ltibia 16.798
lfoot -29.5782 -2.76032
ltoes -60.5568
185
root 7.56381 18.1784 23.1809 -168.827 -2.84894 175.281
lowerback 4.848 -1.18883 -9.22143
upperback 4.4603 -2.2032 2.05079
thorax 2.36802 -1.53014 7.3939
lowerneck -3.05918 -1.25426 -2.51512
upperneck 22.2298 -0.648216 4.386
head 7.32013 0.478089 1.89346
rclavicle 9.14409e-015 1.11319e-014
rhumerus -94.2341 -45.7659 0.103529
rradius 12.6947
rwrist 57.7868
rhand -11.618 -40.4143
rfingers 7.12502
rthumb 14.4251 -69.893
lclavicle 9.14409e-015 1.11319e-014
lhumerus -22.3154 -8.72577 91.9444
lradius 40.9327
lwrist -18.1081
lhand -31.2975 -27.0692
lfingers 7.12502
lthumb -4.57038 2.86149
rfemur -56.3135 -1.01821 12.7245
rtibia 41.8714
rfoot -9.57892 -7.55203
rtoes -29.2436
lfemur -0.368357 -12.4276 -27.6289
ltibia 17.0428
lfoot -28.4805 -2.77769
ltoes -60.7089
186
root 7.60651 18.2147 22.9153 -168.409 -3.00666 175.589
lowerback 4.68244 -1.19421 -8.57626
upperback 4.38627 -2.16979 2.26635
thorax 2.35381 -1.49088 7.25015
lowerneck -3.0262 -1.22699 -2.59555
upperneck 22.1287 -0.597284 4.31824
head 7.27949 0.484871 1.88621
rclavicle 0 -2.38542e-015
rhumerus -96.1756 -45.6331 2.94252
rradius 12.5088
rwrist 59.7485
rhand -12.2964 -40.8309
rfingers 7.12502
rthumb 13.7713 -70.3552
lclavicle 0 -2.38542e-015
lhumerus -22.695 -8.23527 92.2895
lradius 40.4436
lwrist -18.2263
lhand -31.0982 -27.0809
lfingers 7.12502
lthumb -4.37794 2.85382
rfemur -55.597 -0.259808 13.0957
rtibia 41.9578
rfoot -10.9534 -8.28885
rtoes -29.5434
lfemur -0.0430241 -12.611 -27.1715
ltibia 17.4466
lfoot -27.1726 -2.48142
ltoes -60.8878
187
root 7.64564 18.2705 22.6551 -167.929 -3.09902 176.013
lowerback 4.59365 -1.23272 -7.79516
upperback 4.3128 -2.19222 2.54954
thorax 2.30478 -1.47861 7.10315
lowerneck -3.03963 -1.13675 -2.63634
upperneck 21.8647 -0.470445 4.12711
head 7.19083 0.507873 1.83319
rclavicle 1.15295e-014 -3.97569e-014
rhumerus -97.1724 -45.7569 4.76913
rradius 12.3868
rwrist 61.2845
rhand -12.8128 -41.0374
rfingers 7.12502
rthumb 13.2737 -70.5947
lclavicle 1.15295e-014 -3.97569e-014
lhumerus -23.0905 -7.28606 92.5158
lradius 39.584
lwrist -18.8135
lhand -30.5007 -26.431
lfingers 7.12502
lthumb -3.80094 3.51486
rfemur -55.7051 0.433409 13.6236
rtibia 43.1412
rfoot -12.5302 -8.46479
rtoes -28.7533
lfemur 0.0647095 -12.7923 -26.5881
ltibia 18.0962
lfoot -25.586 -2.06422
ltoes -61.0035
188
root 7.68585 18.3425 22.3937 -167.449 -2.98982 176.299
lowerback 4.51844 -1.21832 -7.16933
upperback 4.26612 -2.15364 2.76503
thorax 2.27038 -1.44283 6.97141
lowerneck -2.73684 -1.07275 -3.07716
upperneck 21.2652 -0.4281 4.26663
head 6.94136 0.474627 1.9428
rclavicle 3.26007e-014 -3.49861e-014
rhumerus -96.9744 -46.1326 4.95697
rradius 12.3538
rwrist 61.7645
rhand -12.6372 -41.0661
rfingers 7.12502
rthumb 13.4429 -70.6124
lclavicle 3.26007e-014 -3.49861e-014
lhumerus -23.4037 -6.38276 92.5914
lradius 38.4964
lwrist -19.2075
lhand -29.0454 -24.3248
lfingers 7.12502
lthumb -2.39551 5.64148
rfemur -55.6758 1.2074 13.9521
rtibia 44.0495
rfoot -13.8043 -8.59102
rtoes -28.4095
lfemur 0.132492 -12.8723 -26.1795
ltibia 18.7648
lfoot -23.6273 -0.864491
ltoes -61.536
189
root 7.7226 18.4303 22.1289 -167.121 -2.64099 176.344
lowerback 4.60792 -1.1246 -6.73072
upperback 4.23389 -2.02468 2.82613
thorax 2.14629 -1.36202 6.78619
lowerneck -3.95066 -0.788581 -2.25349
upperneck 22.0123 0.0907464 3.25601
head 7.38413 0.71429 1.52677
rclavicle -5.1684e-015 -4.77083e-015
rhumerus -96.4959 -46.6393 4.75921
rradius 12.3467
rwrist 61.9753
rhand -12.228 -40.7186
rfingers 7.12502
rthumb 13.8373 -70.2383
lclavicle -5.1684e-015 -4.77083e-015
lhumerus -23.7856 -5.81723 92.5416
lradius 37.3381
lwrist -19.1272
lhand -28.1967 -23.7007
lfingers 7.12502
lthumb -1.57592 6.27321
rfemur -55.1179 1.82082 14.1167
rtibia 44.3391
rfoot -14.8849 -8.40701
rtoes -28.5385
lfemur 0.370402 -12.7156 -26.1553
ltibia 19.2442
lfoot -21.0843 0.344006
ltoes -61.7951
190
root 7.75362 18.5317 21.8645 -166.837 -2.32878 176.255
lowerback 4.54143 -1.08375 -6.4732
upperback 4.33245 -1.97311 2.93015
thorax 2.27063 -1.34487 6.74425
lowerneck -3.59468 -0.644427 -2.79298
upperneck 21.3563 0.223727 3.54408
head 7.10058 0.730086 1.70666
rclavicle 2.38542e-015 3.97569e-014
rhumerus -94.7929 -47.5405 3.23321
rradius 12.3972
rwrist 61.4301
rhand -11.7656 -40.2534
rfingers 7.12502
rthumb 14.2828 -69.7422
lclavicle 2.38542e-015 3.97569e-014
lhumerus -24.0481 -4.98611 92.5408
lradius 35.9693
lwrist -19.1621
lhand -28.1476 -24.2196
lfingers 7.12502
lthumb -1.5285 5.75463
rfemur -54.0935 2.07232 14.2525
rtibia 44.0239
rfoot -16.0681 -8.00302
rtoes -27.9932
lfemur 0.538976 -12.3294 -26.2617
ltibia 19.6628
lfoot -18.0782 1.30644
ltoes -61.6694
191
root 7.78552 18.6389 21.5937 -166.407 -2.19945 176.132
lowerback 4.30737 -1.12683 -6.1633
upperback 4.33318 -2.01034 3.00657
thorax 2.39822 -1.36085 6.64071
lowerneck -3.56842 -0.527532 -3.15151
upperneck 21.0768 0.384454 3.53694
head 6.99949 0.762233 1.76975
rclavicle 1.98785e-014 -2.94201e-014
rhumerus -91.0347 -48.3309 -1.13571
rradius 12.6293
rwrist 59.1854
rhand -11.5535 -40.0597
rfingers 7.12502
rthumb 14.4873 -69.534
lclavicle 1.98785e-014 -2.94201e-014
lhumerus -24.3747 -4.0051 92.4533
lradius 34.2558
lwrist -19.4595
lhand -28.1501 -24.2383
lfingers 7.12502
lthumb -1.53092 5.73595
rfemur -52.9879 1.91701 14.4582
rtibia 43.437
rfoot -17.2408 -7.66677
rtoes -27.5331
lfemur 0.455218 -11.7402 -26.2499
ltibia 20.2253
lfoot -14.3242 0.651456
ltoes -58.0352
192
root 7.82526 18.752 21.3237 -165.801 -2.06648 176.119
lowerback 3.98906 -1.14067 -5.83866
upperback 4.18462 -1.98945 3.09039
thorax 2.40774 -1.33118 6.53586
lowerneck -3.60054 -0.466309 -3.17453
upperneck 20.993 0.495164 3.33479
head 6.97544 0.79075 1.7138
rclavicle 2.3059e-014 -2.54444e-014
rhumerus -86.9183 -48.8875 -5.98891
rradius 12.9341
rwrist 56.5584
rhand -11.6099 -39.7474
rfingers 7.12502
rthumb 14.4329 -69.2256
lclavicle 2.3059e-014 -2.54444e-014
lhumerus -24.7656 -3.05022 92.2539
lradius 32.3547
lwrist -19.8923
lhand -27.9784 -24.3328
lfingers 7.12502
lthumb -1.36503 5.64257
rfemur -52.0403 1.74375 14.8162
rtibia 42.8004
rfoot -18.2237 -7.36524
rtoes -27.602
lfemur -0.00364385 -10.9206 -25.9658
ltibia 20.9467
lfoot -11.4398 0.832632
ltoes -56.2064
193
root 7.86878 18.8714 21.063 -165.276 -1.77954 176.101
lowerback 3.83823 -1.09846 -5.69521
upperback 4.02126 -1.9103 3.19426
thorax 2.30779 -1.27496 6.56118
lowerneck -3.78212 -0.37525 -3.08114
upperneck 20.9606 0.661517 2.97864
head 6.99412 0.840862 1.59381
rclavicle 1.43125e-014 -2.38542e-015
rhumerus -82.3629 -49.3062 -11.1071
rradius 13.2142
rwrist 53.8782
rhand -11.8224 -39.3113
rfingers 7.12502
rthumb 14.2282 -68.8039
lclavicle 1.43125e-014 -2.38542e-015
lhumerus -25.2566 -1.79899 91.9696
lradius 30.5454
lwrist -20.7297
lhand -27.6437 -24.5203
lfingers 7.12502
lthumb -1.04183 5.45688
rfemur -51.0331 1.7979 15.1057
rtibia 42.0402
rfoot -19.0467 -6.97615
rtoes -27.2672
lfemur -0.679648 -9.99925 -25.7172
ltibia 21.8915
lfoot -8.48987 2.40197
ltoes -56.6763
194
root 7.90877 18.9877 20.8021 -164.969 -1.45701 175.905
lowerback 3.76791 -1.0515 -5.7153
upperback 3.92341 -1.83532 3.21531
thorax 2.23513 -1.22866 6.5939
lowerneck -4.01004 -0.271204 -3.15766
upperneck 20.9378 0.81996 2.85196
head 7.02291 0.89258 1.57709
rclavicle 3.97569e-016 3.49861e-014
rhumerus -76.4309 -49.1335 -17.9869
rradius 13.6267
rwrist 50.2335
rhand -12.2934 -39.2621
rfingers 7.12502
rthumb 13.7743 -68.7861
lclavicle 3.97569e-016 3.49861e-014
lhumerus -25.8656 -0.589451 91.6034
lradius 28.9567
lwrist -21.5939
lhand -27.0589 -24.0246
lfingers 7.12502
lthumb -0.476956 5.95459
rfemur -49.6946 1.96094 15.1044
rtibia 41.0116
rfoot -19.6321 -6.48909
rtoes -26.2818
lfemur -1.41858 -9.05584 -25.7663
ltibia 23.3471
lfoot -5.47779 3.80325
ltoes -56.2098
